<svg width="253" height="83" viewBox="0 0 253 83" fill="none" xmlns="http://www.w3.org/2000/svg">
<path d="M37.2574 4.24264C39.6005 1.8995 43.3995 1.8995 45.7426 4.24264L78.7574 37.2574C81.1005 39.6005 81.1005 43.3995 78.7574 45.7426L45.7426 78.7574C43.3995 81.1005 39.6005 81.1005 37.2574 78.7574L4.24264 45.7426C1.8995 43.3995 1.8995 39.6005 4.24264 37.2574L37.2574 4.24264Z" fill="#65DAFF"/>
<path d="M37.008 52L29.456 42.08V52H23.984V29.536H29.456V39.392L36.944 29.536H43.376L34.672 40.544L43.696 52H37.008ZM50.3285 32.288C49.3685 32.288 48.5792 32.0107 47.9605 31.456C47.3632 30.88 47.0645 30.176 47.0645 29.344C47.0645 28.4907 47.3632 27.7867 47.9605 27.232C48.5792 26.656 49.3685 26.368 50.3285 26.368C51.2672 26.368 52.0352 26.656 52.6325 27.232C53.2512 27.7867 53.5605 28.4907 53.5605 29.344C53.5605 30.176 53.2512 30.88 52.6325 31.456C52.0352 32.0107 51.2672 32.288 50.3285 32.288ZM53.0485 34.144V52H47.5765V34.144H53.0485ZM57.206 43.04C57.206 41.2053 57.5473 39.5947 58.23 38.208C58.934 36.8213 59.8833 35.7547 61.078 35.008C62.2727 34.2613 63.606 33.888 65.078 33.888C66.2513 33.888 67.318 34.1333 68.278 34.624C69.2593 35.1147 70.0273 35.776 70.582 36.608V28.32H76.054V52H70.582V49.44C70.07 50.2933 69.334 50.976 68.374 51.488C67.4353 52 66.3367 52.256 65.078 52.256C63.606 52.256 62.2727 51.8827 61.078 51.136C59.8833 50.368 58.934 49.2907 58.23 47.904C57.5473 46.496 57.206 44.8747 57.206 43.04ZM70.582 43.072C70.582 41.7067 70.198 40.6293 69.43 39.84C68.6833 39.0507 67.766 38.656 66.678 38.656C65.59 38.656 64.662 39.0507 63.894 39.84C63.1473 40.608 62.774 41.6747 62.774 43.04C62.774 44.4053 63.1473 45.4933 63.894 46.304C64.662 47.0933 65.59 47.488 66.678 47.488C67.766 47.488 68.6833 47.0933 69.43 46.304C70.198 45.5147 70.582 44.4373 70.582 43.072ZM88.5568 52.256C86.9994 52.256 85.6128 51.9893 84.3968 51.456C83.1808 50.9227 82.2208 50.1973 81.5168 49.28C80.8128 48.3413 80.4181 47.296 80.3328 46.144H85.7408C85.8048 46.7627 86.0928 47.264 86.6048 47.648C87.1168 48.032 87.7461 48.224 88.4928 48.224C89.1754 48.224 89.6981 48.096 90.0608 47.84C90.4448 47.5627 90.6368 47.2107 90.6368 46.784C90.6368 46.272 90.3701 45.8987 89.8368 45.664C89.3034 45.408 88.4394 45.1307 87.2448 44.832C85.9648 44.5333 84.8981 44.224 84.0448 43.904C83.1914 43.5627 82.4554 43.04 81.8368 42.336C81.2181 41.6107 80.9088 40.64 80.9088 39.424C80.9088 38.4 81.1861 37.472 81.7408 36.64C82.3168 35.7867 83.1488 35.1147 84.2368 34.624C85.3461 34.1333 86.6581 33.888 88.1728 33.888C90.4128 33.888 92.1728 34.4427 93.4528 35.552C94.7541 36.6613 95.5008 38.1333 95.6928 39.968H90.6368C90.5514 39.3493 90.2741 38.8587 89.8048 38.496C89.3568 38.1333 88.7594 37.952 88.0128 37.952C87.3728 37.952 86.8821 38.08 86.5408 38.336C86.1994 38.5707 86.0288 38.9013 86.0288 39.328C86.0288 39.84 86.2954 40.224 86.8288 40.48C87.3834 40.736 88.2368 40.992 89.3888 41.248C90.7114 41.5893 91.7888 41.9307 92.6208 42.272C93.4528 42.592 94.1781 43.1253 94.7968 43.872C95.4368 44.5973 95.7674 45.5787 95.7888 46.816C95.7888 47.8613 95.4901 48.8 94.8928 49.632C94.3168 50.4427 93.4741 51.0827 92.3648 51.552C91.2768 52.0213 90.0074 52.256 88.5568 52.256ZM128.574 52H123.102L113.95 38.144V52H108.478V29.536H113.95L123.102 43.456V29.536H128.574V52ZM150.652 42.784C150.652 43.296 150.62 43.8293 150.556 44.384H138.172C138.258 45.4933 138.61 46.3467 139.228 46.944C139.868 47.52 140.647 47.808 141.564 47.808C142.93 47.808 143.879 47.232 144.412 46.08H150.236C149.938 47.2533 149.394 48.3093 148.604 49.248C147.836 50.1867 146.866 50.9227 145.692 51.456C144.519 51.9893 143.207 52.256 141.756 52.256C140.007 52.256 138.45 51.8827 137.084 51.136C135.719 50.3893 134.652 49.3227 133.884 47.936C133.116 46.5493 132.732 44.928 132.732 43.072C132.732 41.216 133.106 39.5947 133.852 38.208C134.62 36.8213 135.687 35.7547 137.052 35.008C138.418 34.2613 139.986 33.888 141.756 33.888C143.484 33.888 145.02 34.2507 146.364 34.976C147.708 35.7013 148.754 36.736 149.5 38.08C150.268 39.424 150.652 40.992 150.652 42.784ZM145.052 41.344C145.052 40.4053 144.732 39.6587 144.092 39.104C143.452 38.5493 142.652 38.272 141.692 38.272C140.775 38.272 139.996 38.5387 139.356 39.072C138.738 39.6053 138.354 40.3627 138.204 41.344H145.052ZM164.771 47.36V52H161.987C160.003 52 158.456 51.52 157.347 50.56C156.238 49.5787 155.683 47.9893 155.683 45.792V38.688H153.507V34.144H155.683V29.792H161.155V34.144H164.739V38.688H161.155V45.856C161.155 46.3893 161.283 46.7733 161.539 47.008C161.795 47.2427 162.222 47.36 162.819 47.36H164.771ZM194.731 34.144L189.899 52H183.851L181.035 40.416L178.123 52H172.107L167.243 34.144H172.715L175.243 46.912L178.251 34.144H184.043L187.083 46.848L189.579 34.144H194.731ZM206.226 52.256C204.476 52.256 202.898 51.8827 201.49 51.136C200.103 50.3893 199.004 49.3227 198.194 47.936C197.404 46.5493 197.01 44.928 197.01 43.072C197.01 41.2373 197.415 39.6267 198.226 38.24C199.036 36.832 200.146 35.7547 201.554 35.008C202.962 34.2613 204.54 33.888 206.29 33.888C208.039 33.888 209.618 34.2613 211.026 35.008C212.434 35.7547 213.543 36.832 214.354 38.24C215.164 39.6267 215.57 41.2373 215.57 43.072C215.57 44.9067 215.154 46.528 214.322 47.936C213.511 49.3227 212.391 50.3893 210.962 51.136C209.554 51.8827 207.975 52.256 206.226 52.256ZM206.226 47.52C207.271 47.52 208.156 47.136 208.882 46.368C209.628 45.6 210.002 44.5013 210.002 43.072C210.002 41.6427 209.639 40.544 208.914 39.776C208.21 39.008 207.335 38.624 206.29 38.624C205.223 38.624 204.338 39.008 203.634 39.776C202.93 40.5227 202.578 41.6213 202.578 43.072C202.578 44.5013 202.919 45.6 203.602 46.368C204.306 47.136 205.18 47.52 206.226 47.52ZM225.225 37.12C225.865 36.1387 226.665 35.3707 227.625 34.816C228.585 34.24 229.651 33.952 230.825 33.952V39.744H229.321C227.955 39.744 226.931 40.0427 226.249 40.64C225.566 41.216 225.225 42.24 225.225 43.712V52H219.753V34.144H225.225V37.12ZM245.632 52L240.192 44.512V52H234.72V28.32H240.192V41.408L245.6 34.144H252.352L244.928 43.104L252.416 52H245.632Z" fill="#113C49"/>
</svg>
